<svg xmlns="http://www.w3.org/2000/svg" viewBox="0 0 48 48" width="32" height="32"><path fill="#455a64" d="M6,10c0-2.2,1.8-4,4-4h28c2.2,0,4,1.8,4,4v28c0,2.2-1.8,4-4,4H10c-2.2,0-4-1.8-4-4V10z"/><path fill="#00e5ff" d="M24,29.9c-2.3,0-3.9-0.9-4.5-0.9c-1.4,0-2.5,1.1-2.5,2.5s1.8,2.3,2.8,3S22.6,37,24,37s3.7-2,4.1-2.4 c0.8-0.7,2.9-1.7,2.9-3.1S29.9,29,28.5,29C27.9,29,26.3,29.9,24,29.9z M27.2,30.8c0.7-0.4,1.5-0.3,1.9,0.3c0.4,0.6,0.1,1.4-0.5,1.8 c-0.7,0.4-1.5,0.3-1.9-0.3C26.3,32.1,26.5,31.2,27.2,30.8z M21.3,32.6c-0.4,0.6-1.2,0.7-1.9,0.3c-0.7-0.4-0.9-1.2-0.5-1.8 c0.4-0.6,1.2-0.7,1.9-0.3C21.5,31.2,21.7,32.1,21.3,32.6z"/><path fill="#00e5ff" d="M23 11H25V31H23z"/><path fill="#00e5ff" d="M17 12H31V14H17zM15 16H33V18H15zM16 20H32V22H16zM18 24H22V26H18zM26 24H30V26H26z"/></svg>