<svg xmlns="http://www.w3.org/2000/svg" viewBox="0 0 48 48" width="32" height="32"><path fill="#ffa726" d="M15.217 24.078c0 1.942-1.571 3.513-3.513 3.513s-3.513-1.571-3.513-3.513 1.571-3.513 3.513-3.513S15.217 22.136 15.217 24.078M39.809 24.078c0 1.942-1.571 3.513-3.513 3.513s-3.513-1.571-3.513-3.513 1.571-3.513 3.513-3.513S39.809 22.136 39.809 24.078"/><path fill="#ffb74d" d="M10.826,17.93c0-11.177,26.348-7.276,26.348,0v8.783c0,7.276-5.897,13.174-13.174,13.174 s-13.174-5.897-13.174-13.174V17.93z"/><path fill="#784719" d="M17.852 24.371c-.678 0-1.289-.18-1.751-.467-.001.018-.005.034-.005.052 0 .971.786 1.757 1.756 1.757s1.757-.786 1.757-1.757c0-.018-.005-.034-.005-.052C19.142 24.192 18.53 24.371 17.852 24.371zM30.148 24.371c-.678 0-1.289-.18-1.751-.467-.001.018-.005.034-.005.052 0 .971.786 1.757 1.757 1.757s1.756-.786 1.756-1.757c0-.018-.005-.035-.005-.052C31.437 24.192 30.826 24.371 30.148 24.371z"/><path fill="#ffb74d" d="M19.609,32.861h8.783c0,0-1.757,2.635-4.391,2.635S19.609,32.861,19.609,32.861z"/><path fill="#4db6ac" d="M25.764 26.398H40.805V28.098H25.764z" transform="rotate(-50.222 33.284 27.248)"/><path fill="#4db6ac" d="M13.824 19.684H15.524V34.725H13.824z" transform="rotate(-39.778 14.676 27.206)"/><path fill="#dcedc8" d="M29.676,30.846c-0.331-0.723-0.738-1.487-1.23-2.233c-1.07-1.619-2.246-2.624-3.122-3.213 c-0.814-0.548-1.876-0.548-2.689,0c-0.876,0.59-2.052,1.594-3.122,3.213c-0.493,0.746-0.899,1.51-1.23,2.233 c-0.865,1.887-1.284,3.908-1.282,5.943C17.002,39.116,19.155,41,21.798,41h2.181h2.181c2.643,0,4.796-1.884,4.798-4.211 C30.96,34.754,30.541,32.733,29.676,30.846z"/><path fill="#424242" d="M38.834,17.35c-0.415-5.249-2.251-10.416-8.686-11.716L28.391,3H24C15.897,3,9.07,9.57,9.07,18.809 v2.985l2.635,3.163v-5.27l18.443-6.148l6.148,5.27v6.148l2.635-3.163v-2.985C38.93,18.314,38.893,17.827,38.834,17.35"/><path fill="#4fc3f7" d="M23 39.684H25V48H23z"/><path fill="#4db6ac" d="M25,42h-2c-0.552,0-1-0.448-1-1v-5h4v5C26,41.552,25.552,42,25,42z"/></svg>